<?xml version="1.0" encoding="UTF-8"?>
<svg version="1.1" xmlns="http://www.w3.org/2000/svg" width="946" height="976">
<path d="M0 0 C1.31456334 -0.00375528 1.31456334 -0.00375528 2.65568352 -0.00758642 C4.1192903 -0.00407467 4.1192903 -0.00407467 5.6124649 -0.00049198 C6.6432271 -0.00194542 7.6739893 -0.00339886 8.73598671 -0.00489634 C12.23637171 -0.00858468 15.73671392 -0.0050569 19.23709869 -0.00163448 C21.75337751 -0.00278518 24.26965616 -0.00437236 26.78593445 -0.00636172 C32.28074833 -0.00968222 37.7755488 -0.00985608 43.27036285 -0.00731456 C51.44108977 -0.00354556 59.61180834 -0.00545878 67.7825352 -0.00852287 C82.37203312 -0.01380002 96.96152668 -0.01332769 111.55102503 -0.01044396 C124.31820956 -0.00793267 137.08539249 -0.0072697 149.85257721 -0.0084666 C150.69803488 -0.00854299 151.54349255 -0.00861937 152.41457015 -0.00869807 C155.84618546 -0.00900939 159.27780076 -0.00932779 162.70941606 -0.00965784 C194.92900509 -0.01271981 227.14859132 -0.00993866 259.36817992 -0.00456094 C288.02045121 0.00018499 316.67271806 -0.00023962 345.32498932 -0.00502193 C377.48402474 -0.01037155 409.6430577 -0.01250269 441.80209351 -0.00940967 C445.22761281 -0.00908893 448.65313212 -0.00877609 452.07865143 -0.0084666 C452.9221593 -0.00838752 453.76566717 -0.00830845 454.63473588 -0.00822697 C467.39680346 -0.00708743 480.15886926 -0.00842363 492.92093658 -0.01094615 C507.42569255 -0.01379877 521.93044345 -0.01310482 536.43519878 -0.00766541 C544.56228679 -0.00471858 552.68936384 -0.00455257 560.81645158 -0.00831159 C566.86802104 -0.01080295 572.9195761 -0.00812137 578.97114468 -0.00333701 C581.43208518 -0.00221162 583.89302713 -0.00280667 586.35396671 -0.0052128 C589.67558735 -0.00821355 592.99714643 -0.00517567 596.31876373 -0.00049198 C597.29450159 -0.00283314 598.27023945 -0.00517431 599.27554512 -0.00758642 C600.15192068 -0.0050829 601.02829624 -0.00257938 601.93122864 0 C603.07243723 0.00010164 603.07243723 0.00010164 604.23670053 0.00020533 C605.96561432 0.12534916 605.96561432 0.12534916 606.96561432 1.12534916 C608.46058274 1.33234479 609.96227352 1.49214175 611.46561432 1.62534916 C615.85450321 2.01423805 615.85450321 2.01423805 616.96561432 3.12534916 C617.97623932 3.24909916 618.98686432 3.37284916 620.02811432 3.50034916 C623.55781571 4.06061923 626.4763944 5.03250953 629.79105377 6.31382573 C631.89678568 7.09966303 634.00888598 7.78952517 636.15702057 8.44956791 C645.20829547 11.25394226 653.40789065 14.59349542 661.65311432 19.26597416 C664.39060906 20.80258678 667.11151754 22.14223944 669.96561432 23.43784916 C676.56989444 26.67914577 682.31167213 31.33009921 688.14286041 35.76988041 C690.03736626 37.17870662 691.97557433 38.5091883 693.92264557 39.84409916 C694.92682526 40.59691166 695.93100494 41.34972416 696.96561432 42.12534916 C696.96561432 42.78534916 696.96561432 43.44534916 696.96561432 44.12534916 C697.55785797 44.39379643 698.15010162 44.6622437 698.76029205 44.93882573 C702.44108913 46.9191948 705.10441437 49.92620971 708.02811432 52.87534916 C709.0251236 53.87973027 709.0251236 53.87973027 710.04227448 54.9044019 C720.19684978 65.29726146 728.40474513 76.75559694 735.96561432 89.12534916 C736.49276031 89.97419682 736.49276031 89.97419682 737.03055573 90.84019291 C742.96561432 100.41589993 742.96561432 100.41589993 742.96561432 105.12534916 C743.62561432 105.12534916 744.28561432 105.12534916 744.96561432 105.12534916 C747.67896878 111.96772127 750.26137171 118.770395 752.27811432 125.85191166 C752.94591459 128.06020576 753.73697673 130.17054714 754.59061432 132.31284916 C755.97829984 135.86879332 756.50130649 139.33350191 756.96561432 143.12534916 C757.29561432 143.45534916 757.62561432 143.78534916 757.96561432 144.12534916 C759.90382009 151.11124936 760.25167446 157.95982679 760.2172966 165.16683781 C760.22020348 166.23905571 760.22311036 167.31127361 760.22610533 168.41598296 C760.23339522 172.00332606 760.22646655 175.59049759 760.2195816 179.1778394 C760.22188643 181.77796814 760.2250631 184.37809624 760.22903609 186.97822297 C760.23624741 192.62860446 760.23604776 198.27894771 760.23094177 203.92933095 C760.2233696 212.33171797 760.22724804 220.7340728 760.23335839 229.13645962 C760.24388602 244.14403991 760.24297861 259.15160317 760.23720056 274.15918508 C760.23216893 287.29259211 760.23085629 300.42599289 760.23324585 313.55940068 C760.233475 314.86629042 760.233475 314.86629042 760.23370879 316.19958197 C760.23433147 319.73633323 760.23496827 323.27308448 760.23562832 326.80983573 C760.24174595 359.98546874 760.23619997 393.1610909 760.22543452 426.33672224 C760.21594336 455.80956463 760.21679261 485.28238974 760.22635651 514.75523198 C760.23706638 547.87029262 760.24131209 580.98534368 760.23513198 614.10040581 C760.23449055 617.63070309 760.23386487 621.16100037 760.23324585 624.69129765 C760.23308769 625.56054322 760.23292954 626.42978879 760.23276659 627.32537513 C760.2304919 640.45034266 760.23315173 653.57530325 760.23820496 666.70026982 C760.24392221 681.62433254 760.24249648 696.54837557 760.23164347 711.47243583 C760.22577016 719.82431041 760.22538862 728.17614233 760.23293582 736.5280158 C760.23794822 742.7625357 760.23251301 748.99700527 760.22298667 755.23151898 C760.22074985 757.75493379 760.22189523 760.27835429 760.22673824 762.80176544 C760.23281246 766.22921198 760.22658869 769.65642612 760.2172966 773.08386052 C760.22197893 774.06546953 760.22666126 775.04707855 760.23148549 776.05843329 C760.14529794 791.94566554 760.14529794 791.94566554 756.96561432 795.12534916 C756.47451176 797.30572619 756.02311913 799.49509626 755.59061432 801.68784916 C754.45514323 807.1281888 753.08573387 812.00172691 750.96561432 817.12534916 C750.46042784 818.45672604 749.96052597 819.79011876 749.46561432 821.12534916 C747.96561432 825.12534916 746.46561432 829.12534916 744.96561432 833.12534916 C744.30561432 833.12534916 743.64561432 833.12534916 742.96561432 833.12534916 C742.79932526 834.20429448 742.79932526 834.20429448 742.62967682 835.30503666 C738.27040824 853.81910676 720.86059719 871.63059965 707.96561432 885.12534916 C707.09936432 886.03284916 706.23311432 886.94034916 705.34061432 887.87534916 C700.82292564 892.50887601 700.82292564 892.50887601 698.96561432 894.12534916 C698.30561432 894.12534916 697.64561432 894.12534916 696.96561432 894.12534916 C696.96561432 894.78534916 696.96561432 895.44534916 696.96561432 896.12534916 C695.3801651 897.54234135 695.3801651 897.54234135 693.16092682 899.17222416 C691.94276276 900.06941166 691.94276276 900.06941166 690.69998932 900.98472416 C689.40834869 901.92058354 689.40834869 901.92058354 688.09061432 902.87534916 C687.26819244 903.48378666 686.44577057 904.09222416 685.59842682 904.71909916 C677.36481485 910.73992791 668.86599277 915.93951715 659.59061432 920.18784916 C658.85802399 920.52655034 658.12543365 920.86525151 657.37064362 921.21421635 C655.23955478 922.19352297 653.10383278 923.16172538 650.96561432 924.12534916 C649.88666901 924.61390385 648.80772369 925.10245854 647.69608307 925.60581791 C641.17555775 928.44272652 634.56298899 930.49938258 627.70389557 932.32847416 C625.07539717 932.85511266 625.07539717 932.85511266 623.96561432 934.12534916 C621.63228099 934.4586825 619.29894765 934.79201583 616.96561432 935.12534916 C616.63561432 935.45534916 616.30561432 935.78534916 615.96561432 936.12534916 C613.64744343 936.44632667 611.32782075 936.63755872 608.99686432 936.84409916 C606.97380839 936.91600754 606.97380839 936.91600754 605.96561432 938.12534916 C604.62368094 938.22248222 603.27667281 938.2505785 601.93122864 938.25069833 C600.6166653 938.25445361 600.6166653 938.25445361 599.27554512 938.25828475 C597.81193833 938.254773 597.81193833 938.254773 596.31876373 938.2511903 C595.28800154 938.25264375 594.25723934 938.25409719 593.19524193 938.25559467 C589.69485693 938.25928301 586.19451472 938.25575523 582.69412994 938.25233281 C580.17785113 938.25348351 577.66157248 938.25507068 575.14529419 938.25706005 C569.65048031 938.26038055 564.15567984 938.26055441 558.66086578 938.25801289 C550.49013887 938.25424388 542.31942029 938.2561571 534.14869344 938.2592212 C519.55919551 938.26449834 504.96970195 938.26402602 490.3802036 938.26114229 C477.61301908 938.258631 464.84583615 938.25796803 452.07865143 938.25916493 C451.23319376 938.25924131 450.38773609 938.2593177 449.51665848 938.2593964 C446.08504318 938.25970772 442.65342788 938.26002611 439.22181258 938.26035616 C407.00222355 938.26341814 374.78263732 938.26063699 342.56304872 938.25525927 C313.91077743 938.25051333 285.25851057 938.25093795 256.60623932 938.25572026 C224.4472039 938.26106988 192.28817094 938.26320102 160.12913513 938.26010799 C156.70361582 938.25978726 153.27809652 938.25947442 149.85257721 938.25916493 C149.00906934 938.25908585 148.16556147 938.25900677 147.29649276 938.2589253 C134.53442518 938.25778576 121.77235938 938.25912195 109.01029205 938.26164448 C94.50553609 938.2644971 80.00078519 938.26380315 65.49602985 938.25836374 C57.36894184 938.25541691 49.2418648 938.25525089 41.11477706 938.25900991 C35.0632076 938.26150127 29.01165254 938.2588197 22.96008396 938.25403534 C20.49914346 938.25290994 18.03820151 938.253505 15.57726192 938.25591113 C12.25564129 938.25891188 8.93408221 938.255874 5.6124649 938.2511903 C4.63672705 938.25353147 3.66098919 938.25587264 2.65568352 938.25828475 C1.77930796 938.25578123 0.9029324 938.25327771 0 938.25069833 C-1.14120859 938.25059669 -1.14120859 938.25059669 -2.3054719 938.250493 C-4.03438568 938.12534916 -4.03438568 938.12534916 -5.03438568 937.12534916 C-6.5293541 936.91835354 -8.03104488 936.75855658 -9.53438568 936.62534916 C-13.92327457 936.23646028 -13.92327457 936.23646028 -15.03438568 935.12534916 C-16.04501068 935.00159916 -17.05563568 934.87784916 -18.09688568 934.75034916 C-21.62658707 934.1900791 -24.54516576 933.2181888 -27.85982513 931.9368726 C-29.96555704 931.1510353 -32.07765734 930.46117316 -34.22579193 929.80113041 C-43.27706684 926.99675607 -51.47666201 923.6572029 -59.72188568 918.98472416 C-62.45938043 917.44811155 -65.18028891 916.10845888 -68.03438568 914.81284916 C-74.6386658 911.57155256 -80.3804435 906.92059912 -86.21163177 902.48081791 C-88.10613762 901.07199171 -90.04434569 899.74151003 -91.99141693 898.40659916 C-93.49768646 897.27738041 -93.49768646 897.27738041 -95.03438568 896.12534916 C-95.03438568 895.46534916 -95.03438568 894.80534916 -95.03438568 894.12534916 C-95.62662933 893.8569019 -96.21887299 893.58845463 -96.82906342 893.3118726 C-100.5098605 891.33150353 -103.17318573 888.32448862 -106.09688568 885.37534916 C-106.76155853 884.70576176 -107.42623138 884.03617436 -108.11104584 883.34629643 C-118.26469275 872.95438705 -126.47739712 861.49652515 -134.03438568 849.12534916 C-134.68536224 848.07089604 -135.33633881 847.01644291 -136.00704193 845.93003666 C-139.67887029 839.83371018 -142.55118016 833.78220528 -145.03438568 827.12534916 C-145.55001068 825.97034916 -146.06563568 824.81534916 -146.59688568 823.62534916 C-148.086772 819.99779986 -149.19303459 816.37359505 -150.27657318 812.60972416 C-150.97186162 810.33032496 -151.77633461 808.14976349 -152.65938568 805.93784916 C-154.04707121 802.38190501 -154.57007785 798.91719642 -155.03438568 795.12534916 C-155.36438568 794.79534916 -155.69438568 794.46534916 -156.03438568 794.12534916 C-157.97259145 787.13944896 -158.32044583 780.29087153 -158.28606796 773.08386052 C-158.28897484 772.01164262 -158.29188173 770.93942472 -158.29487669 769.83471537 C-158.30216658 766.24737227 -158.29523791 762.66020074 -158.28835297 759.07285893 C-158.29065779 756.47273019 -158.29383446 753.87260209 -158.29780746 751.27247536 C-158.30501877 745.62209387 -158.30481912 739.97175062 -158.29971313 734.32136738 C-158.29214096 725.91898036 -158.2960194 717.51662553 -158.30212975 709.11423871 C-158.31265738 694.10665842 -158.31174997 679.09909516 -158.30597192 664.09151325 C-158.30094029 650.95810622 -158.29962766 637.82470544 -158.30201721 624.69129765 C-158.30216998 623.82003782 -158.30232275 622.948778 -158.30248015 622.05111635 C-158.30310283 618.5143651 -158.30373963 614.97761385 -158.30439968 611.4408626 C-158.31051732 578.26522959 -158.30497133 545.08960743 -158.29420589 511.91397609 C-158.28471472 482.4411337 -158.28556398 452.96830859 -158.29512787 423.49546635 C-158.30583774 390.38040571 -158.31008345 357.26535465 -158.30390334 324.15029252 C-158.30326191 320.61999524 -158.30263623 317.08969796 -158.30201721 313.55940068 C-158.30185906 312.69015511 -158.3017009 311.82090954 -158.30153796 310.9253232 C-158.29926326 297.80035567 -158.30192309 284.67539507 -158.30697632 271.55042851 C-158.31269357 256.62636579 -158.31126785 241.70232276 -158.30041483 226.7782625 C-158.29454152 218.42638792 -158.29415998 210.074556 -158.30170718 201.72268252 C-158.30671958 195.48816263 -158.30128438 189.25369306 -158.29175803 183.01917934 C-158.28952121 180.49576454 -158.29066659 177.97234403 -158.29550961 175.44893289 C-158.30158383 172.02148635 -158.29536005 168.59427221 -158.28606796 165.16683781 C-158.29075029 164.18522879 -158.29543263 163.20361978 -158.30025685 162.19226503 C-158.2140693 146.30503279 -158.2140693 146.30503279 -155.03438568 143.12534916 C-154.54328312 140.94497214 -154.09189049 138.75560206 -153.65938568 136.56284916 C-152.52391459 131.12250953 -151.15450524 126.24897142 -149.03438568 121.12534916 C-148.55252367 119.79298755 -148.07341376 118.45962779 -147.59688568 117.12534916 C-146.30023005 113.64949741 -144.69880174 110.40922079 -142.99532318 107.11753666 C-142.06425159 105.18726629 -141.35115764 103.27683408 -140.65938568 101.25034916 C-133.5307098 81.81532756 -117.23328975 64.25973403 -102.90938568 49.75034916 C-102.35267181 49.18420903 -101.79595795 48.61806889 -101.22237396 48.03477299 C-97.28047882 44.12534916 -97.28047882 44.12534916 -95.03438568 44.12534916 C-95.03438568 43.46534916 -95.03438568 42.80534916 -95.03438568 42.12534916 C-93.44893646 40.70835698 -93.44893646 40.70835698 -91.22969818 39.07847416 C-90.41758881 38.48034916 -89.60547943 37.88222416 -88.76876068 37.26597416 C-87.90766693 36.64206791 -87.04657318 36.01816166 -86.15938568 35.37534916 C-84.92575287 34.46269291 -84.92575287 34.46269291 -83.66719818 33.53159916 C-75.43358622 27.51077041 -66.93476413 22.31118118 -57.65938568 18.06284916 C-56.92679535 17.72414799 -56.19420502 17.38544682 -55.43941498 17.03648198 C-53.30832614 16.05717535 -51.17260414 15.08897295 -49.03438568 14.12534916 C-47.95544037 13.63679448 -46.87649506 13.14823979 -45.76485443 12.64488041 C-39.24432912 9.80797181 -32.63176036 7.75131574 -25.77266693 5.92222416 C-23.14416853 5.39558567 -23.14416853 5.39558567 -22.03438568 4.12534916 C-18.53438568 3.62534916 -18.53438568 3.62534916 -15.03438568 3.12534916 C-14.70438568 2.79534916 -14.37438568 2.46534916 -14.03438568 2.12534916 C-11.71621479 1.80437166 -9.39659211 1.61313961 -7.06563568 1.40659916 C-4.27748606 1.02054768 -3.0910883 0.0002753 0 0 Z " fill="#09AEFC" transform="translate(175.03438568115234,20.874650835990906)"/>
<path d="M0 0 C7.76052733 5.31780897 11.68196792 13.84140903 15.73828125 22.03027344 C16.95096105 24.4285423 18.16561763 26.82570967 19.3828125 29.22167969 C19.68638672 29.82199509 19.98996094 30.42231049 20.30273438 31.04081726 C23.85820598 38.04856721 27.663268 44.91728683 31.49487305 51.77685547 C31.96449463 52.62489746 32.43411621 53.47293945 32.91796875 54.34667969 C33.53841064 55.45571655 33.53841064 55.45571655 34.17138672 56.5871582 C35.05078125 58.40527344 35.05078125 58.40527344 35.05078125 60.40527344 C35.65921875 60.49164063 36.26765625 60.57800781 36.89453125 60.66699219 C68.7643743 65.77554056 98.71830574 81.42195468 122.05078125 103.40527344 C122.72625 104.01628906 123.40171875 104.62730469 124.09765625 105.25683594 C133.34217054 113.94667937 145.22780879 128.27326828 146.2890625 141.33886719 C146.58612088 155.36314976 142.69137171 167.39563836 132.8671875 177.69433594 C121.48547882 187.67435635 108.78771485 189.48583534 94.1875 188.86621094 C82.12562469 187.99238252 73.76848341 181.37907086 64.30078125 174.47949219 C37.56811668 155.01613039 7.63587637 147.43154299 -25.4296875 152.05761719 C-39.46035021 154.50266135 -53.36610773 159.65651557 -63.94921875 169.40527344 C-64.57054687 169.93636719 -65.191875 170.46746094 -65.83203125 171.01464844 C-72.45112864 177.0320097 -78.23488496 186.36250961 -79.15209961 195.40551758 C-79.25373277 197.65994889 -79.27827173 199.89862909 -79.26171875 202.15527344 C-79.2560791 202.95441162 -79.25043945 203.7535498 -79.24462891 204.5769043 C-79.0420854 214.44438276 -76.74510048 222.96901055 -69.94921875 230.40527344 C-59.22897453 239.53904474 -46.38225765 245.09177701 -32.8984375 248.79199219 C-32.13402344 249.00270859 -31.36960937 249.21342499 -30.58203125 249.43052673 C-20.30042746 252.19705883 -9.870972 254.30651502 0.55078125 256.46777344 C2.58084669 256.89234211 4.61079516 257.31747043 6.640625 257.74316406 C7.63595245 257.95188644 8.63127991 258.16060883 9.6567688 258.37565613 C13.55019234 259.19307106 17.44328076 260.01205618 21.33587646 260.83340454 C23.08602504 261.20205671 24.83652918 261.56902685 26.58746338 261.93392944 C36.93015954 264.09615602 46.90932961 266.68701869 56.92578125 270.09277344 C57.56420959 270.3080368 58.20263794 270.52330017 58.8604126 270.74508667 C85.576298 279.78252382 109.39392825 291.94542351 130.05078125 311.40527344 C130.788125 312.0665625 131.52546875 312.72785156 132.28515625 313.40917969 C147.64256916 327.75910274 158.13465025 348.11640319 163.05078125 368.40527344 C163.23697021 369.15953613 163.42315918 369.91379883 163.61499023 370.69091797 C165.36555379 378.83426874 165.38896915 386.92905709 165.36645508 395.21923828 C165.36330482 397.63718224 165.38679603 400.05388685 165.41210938 402.47167969 C165.45307889 412.51299307 164.44868315 421.64308185 162.05078125 431.40527344 C161.77657349 432.60313477 161.77657349 432.60313477 161.49682617 433.82519531 C152.23879913 472.79251765 124.49040827 504.2757756 91.22998047 525.15625 C50.13268188 550.14481425 -1.95677534 557.86652948 -48.94921875 548.40527344 C-49.81466309 548.23366699 -50.68010742 548.06206055 -51.57177734 547.88525391 C-98.05193529 538.37505154 -143.90117244 513.09421496 -170.74609375 472.97167969 C-173.2766477 468.9604097 -175.57955185 464.83200638 -177.82421875 460.65527344 C-178.19369629 459.97053955 -178.56317383 459.28580566 -178.94384766 458.58032227 C-183.38984134 450.04774158 -185.45130633 442.61936891 -185.32421875 432.96777344 C-185.33582031 432.09056641 -185.34742188 431.21335937 -185.359375 430.30957031 C-185.30476072 417.95764175 -181.05977591 408.94927843 -172.69140625 399.98730469 C-162.30980368 390.0229691 -151.57907494 385.98078329 -137.50756836 385.88842773 C-123.17188683 386.22005289 -113.60135982 394.69542151 -103.94921875 404.40527344 C-103.28277344 405.035625 -102.61632812 405.66597656 -101.9296875 406.31542969 C-96.4877871 411.51164609 -91.97217633 417.49498006 -87.37890625 423.43652344 C-71.02357961 443.49029078 -45.78354932 453.53262448 -20.65527344 456.18261719 C-8.07688389 457.2175767 4.68727283 457.07389957 17.05078125 454.40527344 C18.015 454.22222656 18.97921875 454.03917969 19.97265625 453.85058594 C36.53450802 450.3016177 54.0328686 441.28551385 64.05078125 427.40527344 C70.24894144 416.22486008 72.11773514 403.85420551 69.3671875 391.28027344 C64.92009755 379.47057399 56.24125194 371.7741834 45.11328125 366.28027344 C31.30117416 360.35121472 16.60062488 357.57084782 1.859375 355.01028442 C-49.00684812 346.11898349 -100.88049904 332.11633553 -138.94921875 295.40527344 C-139.73941406 294.67824219 -140.52960938 293.95121094 -141.34375 293.20214844 C-154.57337374 280.69077047 -163.08749044 264.79067889 -169.26171875 247.84277344 C-169.60734863 246.90824341 -169.60734863 246.90824341 -169.95996094 245.95483398 C-174.54743082 232.65218177 -175.49260896 219.59218722 -175.38671875 205.65527344 C-175.3840097 204.8186618 -175.38130066 203.98205017 -175.37850952 203.12008667 C-175.31787171 190.77785719 -174.6219593 179.26263117 -170.94921875 167.40527344 C-170.45808594 165.56642578 -170.45808594 165.56642578 -169.95703125 163.69042969 C-163.41595871 141.32187139 -149.95205591 121.99003195 -133.94921875 105.40527344 C-133.2840625 104.68855469 -132.61890625 103.97183594 -131.93359375 103.23339844 C-114.88705736 85.32737282 -91.82513748 73.95378323 -68.94921875 65.40527344 C-67.58216797 64.89287109 -67.58216797 64.89287109 -66.1875 64.37011719 C-62.33503997 63.00106114 -59.10056174 62.00353057 -54.94921875 62.40527344 C-54.67770996 61.53249756 -54.40620117 60.65972168 -54.12646484 59.76049805 C-53.00447801 56.56276578 -51.68471482 53.71986953 -50.11328125 50.72167969 C-49.54947754 49.63983398 -48.98567383 48.55798828 -48.40478516 47.44335938 C-47.80069824 46.29641602 -47.19661133 45.14947266 -46.57421875 43.96777344 C-45.30248712 41.5476717 -44.03210383 39.12686346 -42.76171875 36.70605469 C-42.44103424 36.09627777 -42.12034973 35.48650085 -41.78994751 34.85824585 C-39.68767814 30.85028208 -37.64645332 26.81618656 -35.63671875 22.76074219 C-35.11899902 21.72941162 -34.6012793 20.69808105 -34.06787109 19.63549805 C-33.10130695 17.70695137 -32.14759761 15.7718853 -31.20947266 13.8293457 C-27.67343747 6.8464137 -23.27534929 1.8927985 -16.44921875 -2.03222656 C-10.31893564 -3.41154026 -5.43876452 -3.15572206 0 0 Z " fill="#FEFEFE" transform="translate(485.94921875,196.5947265625)"/>
<path d="M0 0 C3.87230878 2.78864028 7.29139764 6.0052694 10.53125 9.5078125 C11.335625 10.3534375 12.14 11.1990625 12.96875 12.0703125 C22.10941231 23.18419715 23.49361092 35.16369199 22.79199219 48.94726562 C21.54763081 61.16717394 14.23287728 71.63271925 5.1875 79.5625 C-6.79729518 88.62891973 -19.75146953 91.39819404 -34.46875 89.5078125 C-47.12653865 86.54562897 -56.77716759 78.79130671 -64.46875 68.5078125 C-66.42799785 65.27632578 -68.0014824 61.98701521 -69.46875 58.5078125 C-69.7884375 57.82460937 -70.108125 57.14140625 -70.4375 56.4375 C-74.51839042 46.4997761 -73.59986445 34.17594714 -69.796875 24.3203125 C-63.43470757 10.84748735 -53.99378435 0.60084915 -39.96875 -4.8671875 C-26.36754623 -8.96831383 -12.19353978 -7.37014588 0 0 Z " fill="#FDFEFE" transform="translate(498.46875,67.4921875)"/>
<path d="M0 0 C3.97682867 0.73043792 5.7365142 2.40321049 8.0625 5.5625 C10.09797137 9.38245429 11.76452932 13.34010305 13.44140625 17.328125 C13.93535385 18.47609558 14.42930145 19.62406616 14.93821716 20.80682373 C16.24564234 23.85102723 17.54263385 26.89924323 18.83459473 29.95001221 C20.14119137 33.0288382 21.46087824 36.10199876 22.77929688 39.17578125 C25.14599174 44.69615816 27.50032923 50.22166885 29.84866333 55.74987793 C31.28429709 59.07643355 32.78488284 62.37059828 34.31700134 65.65374756 C35.5541339 68.82126471 35.64875254 71.24040229 35.0625 74.5625 C32.4893383 77.51406784 30.84447528 78.41887189 27 79.125 C23.01000666 78.36095872 22.35005307 76.87215125 20.0625 73.5625 C18.89171259 71.12156937 17.82252302 68.75065944 16.8125 66.25 C15.905 64.043125 14.9975 61.83625 14.0625 59.5625 C0.2025 59.0675 0.2025 59.0675 -13.9375 58.5625 C-14.9275 61.5325 -15.9175 64.5025 -16.9375 67.5625 C-17.74315699 69.41766269 -18.58863763 71.25691687 -19.5 73.0625 C-19.91378906 73.8978125 -20.32757812 74.733125 -20.75390625 75.59375 C-21.9375 77.5625 -21.9375 77.5625 -23.9375 78.5625 C-27.96941305 79.10008841 -29.4994036 78.8700996 -32.875 76.5 C-34.9375 73.5625 -34.9375 73.5625 -34.78295898 70.40429688 C-33.81733445 66.01646329 -32.31044198 62.23821393 -30.47265625 58.15625 C-30.12349152 57.36180984 -29.77432678 56.56736969 -29.4145813 55.74885559 C-28.28467098 53.18298438 -27.14272079 50.62268841 -26 48.0625 C-25.22035344 46.30136013 -24.44146609 44.53988398 -23.66333008 42.77807617 C-22.50297538 40.15144474 -21.34190074 37.52515762 -20.17723083 34.9004364 C-17.98513217 29.95694244 -15.83140632 25.00081141 -13.7265625 20.01953125 C-13.27659912 18.95863281 -12.82663574 17.89773438 -12.36303711 16.8046875 C-11.56258248 14.91049394 -10.76866429 13.01351901 -9.98266602 11.11328125 C-5.71589228 1.09453256 -5.71589228 1.09453256 0 0 Z " fill="#FBFDFE" transform="translate(636.9375,796.4375)"/>
<path d="M0 0 C3.97682867 0.73043792 5.7365142 2.40321049 8.0625 5.5625 C10.09797137 9.38245429 11.76452932 13.34010305 13.44140625 17.328125 C13.93535385 18.47609558 14.42930145 19.62406616 14.93821716 20.80682373 C16.24564234 23.85102723 17.54263385 26.89924323 18.83459473 29.95001221 C20.14119137 33.0288382 21.46087824 36.10199876 22.77929688 39.17578125 C25.14599174 44.69615816 27.50032923 50.22166885 29.84866333 55.74987793 C31.28429709 59.07643355 32.78488284 62.37059828 34.31700134 65.65374756 C35.5541339 68.82126471 35.64875254 71.24040229 35.0625 74.5625 C32.4893383 77.51406784 30.84447528 78.41887189 27 79.125 C23.01000666 78.36095872 22.35005307 76.87215125 20.0625 73.5625 C18.89171259 71.12156937 17.82252302 68.75065944 16.8125 66.25 C15.905 64.043125 14.9975 61.83625 14.0625 59.5625 C0.2025 59.0675 0.2025 59.0675 -13.9375 58.5625 C-14.9275 61.5325 -15.9175 64.5025 -16.9375 67.5625 C-17.74315699 69.41766269 -18.58863763 71.25691687 -19.5 73.0625 C-19.91378906 73.8978125 -20.32757813 74.733125 -20.75390625 75.59375 C-21.9375 77.5625 -21.9375 77.5625 -23.9375 78.5625 C-27.96941305 79.10008841 -29.4994036 78.8700996 -32.875 76.5 C-34.9375 73.5625 -34.9375 73.5625 -34.78295898 70.40429688 C-33.81733445 66.01646329 -32.31044198 62.23821393 -30.47265625 58.15625 C-30.12349152 57.36180984 -29.77432678 56.56736969 -29.4145813 55.74885559 C-28.28467098 53.18298438 -27.14272079 50.62268841 -26 48.0625 C-25.22035344 46.30136013 -24.44146609 44.53988398 -23.66333008 42.77807617 C-22.50297538 40.15144474 -21.34190074 37.52515762 -20.17723083 34.9004364 C-17.98513217 29.95694244 -15.83140632 25.00081141 -13.7265625 20.01953125 C-13.27659912 18.95863281 -12.82663574 17.89773438 -12.36303711 16.8046875 C-11.56258248 14.91049394 -10.76866429 13.01351901 -9.98266602 11.11328125 C-5.71589228 1.09453256 -5.71589228 1.09453256 0 0 Z " fill="#FBFDFE" transform="translate(407.9375,796.4375)"/>
<path d="M0 0 C3.40138626 2.3498536 5.38255284 4.12120665 7.4765625 7.7109375 C8.14516091 11.42537312 7.98770442 12.93400179 5.9140625 16.0859375 C2.51160141 18.35424489 0.49937492 18.26580818 -3.5234375 17.7109375 C-6.7734375 15.7734375 -6.7734375 15.7734375 -9.5234375 13.7109375 C-14.72551508 11.97691164 -18.9790787 12.06511473 -23.9609375 14.1484375 C-26.37097238 15.47993904 -26.37097238 15.47993904 -27.5234375 16.7109375 C-28.02374956 20.12665603 -28.02374956 20.12665603 -27.5234375 23.7109375 C-23.69975788 26.72153582 -19.43096463 27.62620032 -14.7734375 28.6484375 C-4.38940575 31.12940077 3.14630956 33.53583875 9.4765625 42.7109375 C11.4614474 48.66559221 11.49555074 55.35647651 8.7890625 61.0859375 C4.42663292 68.58625503 -2.2389256 73.3768489 -10.5234375 75.7109375 C-20.3319511 76.7103832 -28.66288861 75.84838483 -36.80859375 70.09765625 C-42.06693987 65.79363792 -45.19126347 61.97731541 -45.8984375 55.0234375 C-45.5234375 51.7109375 -45.5234375 51.7109375 -44.5234375 49.7734375 C-41.14429895 47.97827015 -38.13947825 47.67317892 -34.5234375 48.7109375 C-32.20695031 50.55826273 -30.32283929 52.52898255 -28.3828125 54.765625 C-25.82312061 57.44362197 -23.83234908 58.54462365 -20.15625 59.01171875 C-12.86286491 59.05050854 -12.86286491 59.05050854 -6.5234375 55.7109375 C-5.28057855 52.26219079 -5.28057855 52.26219079 -5.5234375 48.7109375 C-7.3081468 45.85261401 -8.88852954 45.61196911 -12.18359375 44.71875 C-13.64982621 44.41848164 -15.11735952 44.12451577 -16.5859375 43.8359375 C-27.5094298 41.44534399 -36.00243315 38.31183311 -42.5234375 28.7109375 C-45.12084495 23.29026109 -45.5757637 17.87281063 -43.68359375 12.1875 C-40.86873048 5.87538237 -37.44626872 2.19563237 -31.5234375 -1.2890625 C-30.5128125 -1.9078125 -29.5021875 -2.5265625 -28.4609375 -3.1640625 C-18.93420832 -6.75289884 -8.57361469 -4.92231787 0 0 Z " fill="#FAFCFE" transform="translate(782.5234375,800.2890625)"/>
<path d="M0 0 C3.40138626 2.3498536 5.38255284 4.12120665 7.4765625 7.7109375 C8.14516091 11.42537312 7.98770442 12.93400179 5.9140625 16.0859375 C2.51160141 18.35424489 0.49937492 18.26580818 -3.5234375 17.7109375 C-6.7734375 15.7734375 -6.7734375 15.7734375 -9.5234375 13.7109375 C-14.72551508 11.97691164 -18.9790787 12.06511473 -23.9609375 14.1484375 C-26.37097238 15.47993904 -26.37097238 15.47993904 -27.5234375 16.7109375 C-28.02374956 20.12665603 -28.02374956 20.12665603 -27.5234375 23.7109375 C-23.69975788 26.72153582 -19.43096463 27.62620032 -14.7734375 28.6484375 C-4.38940575 31.12940077 3.14630956 33.53583875 9.4765625 42.7109375 C11.4614474 48.66559221 11.49555074 55.35647651 8.7890625 61.0859375 C4.42663292 68.58625503 -2.2389256 73.3768489 -10.5234375 75.7109375 C-20.3319511 76.7103832 -28.66288861 75.84838483 -36.80859375 70.09765625 C-42.06693987 65.79363792 -45.19126347 61.97731541 -45.8984375 55.0234375 C-45.5234375 51.7109375 -45.5234375 51.7109375 -44.5234375 49.7734375 C-41.14429895 47.97827015 -38.13947825 47.67317892 -34.5234375 48.7109375 C-32.20695031 50.55826273 -30.32283929 52.52898255 -28.3828125 54.765625 C-25.82312061 57.44362197 -23.83234908 58.54462365 -20.15625 59.01171875 C-12.86286491 59.05050854 -12.86286491 59.05050854 -6.5234375 55.7109375 C-5.28057855 52.26219079 -5.28057855 52.26219079 -5.5234375 48.7109375 C-7.3081468 45.85261401 -8.88852954 45.61196911 -12.18359375 44.71875 C-13.64982621 44.41848164 -15.11735952 44.12451577 -16.5859375 43.8359375 C-27.5094298 41.44534399 -36.00243315 38.31183311 -42.5234375 28.7109375 C-45.12084495 23.29026109 -45.5757637 17.87281063 -43.68359375 12.1875 C-40.86873048 5.87538237 -37.44626872 2.19563237 -31.5234375 -1.2890625 C-30.5128125 -1.9078125 -29.5021875 -2.5265625 -28.4609375 -3.1640625 C-18.93420832 -6.75289884 -8.57361469 -4.92231787 0 0 Z " fill="#FAFCFE" transform="translate(720.5234375,800.2890625)"/>
<path d="M0 0 C3.40138626 2.3498536 5.38255284 4.12120665 7.4765625 7.7109375 C8.14516091 11.42537312 7.98770442 12.93400179 5.9140625 16.0859375 C2.51160141 18.35424489 0.49937492 18.26580818 -3.5234375 17.7109375 C-6.7734375 15.7734375 -6.7734375 15.7734375 -9.5234375 13.7109375 C-14.72551508 11.97691164 -18.9790787 12.06511473 -23.9609375 14.1484375 C-26.37097238 15.47993904 -26.37097238 15.47993904 -27.5234375 16.7109375 C-28.02374956 20.12665603 -28.02374956 20.12665603 -27.5234375 23.7109375 C-23.69975788 26.72153582 -19.43096463 27.62620032 -14.7734375 28.6484375 C-4.38940575 31.12940077 3.14630956 33.53583875 9.4765625 42.7109375 C11.4614474 48.66559221 11.49555074 55.35647651 8.7890625 61.0859375 C4.42663292 68.58625503 -2.2389256 73.3768489 -10.5234375 75.7109375 C-20.3319511 76.7103832 -28.66288861 75.84838483 -36.80859375 70.09765625 C-42.06693987 65.79363792 -45.19126347 61.97731541 -45.8984375 55.0234375 C-45.5234375 51.7109375 -45.5234375 51.7109375 -44.5234375 49.7734375 C-41.14429895 47.97827015 -38.13947825 47.67317892 -34.5234375 48.7109375 C-32.20695031 50.55826273 -30.32283929 52.52898255 -28.3828125 54.765625 C-25.82312061 57.44362197 -23.83234908 58.54462365 -20.15625 59.01171875 C-12.86286491 59.05050854 -12.86286491 59.05050854 -6.5234375 55.7109375 C-5.28057855 52.26219079 -5.28057855 52.26219079 -5.5234375 48.7109375 C-7.3081468 45.85261401 -8.88852954 45.61196911 -12.18359375 44.71875 C-13.64982621 44.41848164 -15.11735952 44.12451577 -16.5859375 43.8359375 C-27.5094298 41.44534399 -36.00243315 38.31183311 -42.5234375 28.7109375 C-45.12084495 23.29026109 -45.5757637 17.87281063 -43.68359375 12.1875 C-40.86873048 5.87538237 -37.44626872 2.19563237 -31.5234375 -1.2890625 C-30.5128125 -1.9078125 -29.5021875 -2.5265625 -28.4609375 -3.1640625 C-18.93420832 -6.75289884 -8.57361469 -4.92231787 0 0 Z " fill="#FAFCFE" transform="translate(302.5234375,800.2890625)"/>
<path d="M0 0 C3.40138626 2.3498536 5.38255284 4.12120665 7.4765625 7.7109375 C8.14516091 11.42537312 7.98770442 12.93400179 5.9140625 16.0859375 C2.51160141 18.35424489 0.49937492 18.26580818 -3.5234375 17.7109375 C-6.7734375 15.7734375 -6.7734375 15.7734375 -9.5234375 13.7109375 C-14.72551508 11.97691164 -18.9790787 12.06511473 -23.9609375 14.1484375 C-26.37097238 15.47993904 -26.37097238 15.47993904 -27.5234375 16.7109375 C-28.02374956 20.12665603 -28.02374956 20.12665603 -27.5234375 23.7109375 C-23.69975788 26.72153582 -19.43096463 27.62620032 -14.7734375 28.6484375 C-4.38940575 31.12940077 3.14630956 33.53583875 9.4765625 42.7109375 C11.4614474 48.66559221 11.49555074 55.35647651 8.7890625 61.0859375 C4.42663292 68.58625503 -2.2389256 73.3768489 -10.5234375 75.7109375 C-20.3319511 76.7103832 -28.66288861 75.84838483 -36.80859375 70.09765625 C-42.06693987 65.79363792 -45.19126347 61.97731541 -45.8984375 55.0234375 C-45.5234375 51.7109375 -45.5234375 51.7109375 -44.5234375 49.7734375 C-41.14429895 47.97827015 -38.13947825 47.67317892 -34.5234375 48.7109375 C-32.20695031 50.55826273 -30.32283929 52.52898255 -28.3828125 54.765625 C-25.82312061 57.44362197 -23.83234908 58.54462365 -20.15625 59.01171875 C-12.86286491 59.05050854 -12.86286491 59.05050854 -6.5234375 55.7109375 C-5.28057855 52.26219079 -5.28057855 52.26219079 -5.5234375 48.7109375 C-7.3081468 45.85261401 -8.88852954 45.61196911 -12.18359375 44.71875 C-13.64982621 44.41848164 -15.11735952 44.12451577 -16.5859375 43.8359375 C-27.5094298 41.44534399 -36.00243315 38.31183311 -42.5234375 28.7109375 C-45.12084495 23.29026109 -45.5757637 17.87281063 -43.68359375 12.1875 C-40.86873048 5.87538237 -37.44626872 2.19563237 -31.5234375 -1.2890625 C-30.5128125 -1.9078125 -29.5021875 -2.5265625 -28.4609375 -3.1640625 C-18.93420832 -6.75289884 -8.57361469 -4.92231787 0 0 Z " fill="#FAFCFE" transform="translate(209.5234375,800.2890625)"/>
<path d="M0 0 C2.67740104 2.1901031 4.60933062 4.15051665 5.34375 7.59765625 C5.35414795 12.99419063 5.35414795 12.99419063 3.34765625 15.5625 C-0.17793878 17.00889796 -2.29012547 17.13245774 -6.08984375 16.5625 C-8.26085916 15.18934325 -10.19825634 13.65020701 -12.19140625 12.03125 C-17.16864409 8.18054748 -23.03870783 7.80367588 -29.08984375 8.5625 C-36.71308422 10.4042003 -41.78623329 13.99704881 -46.08984375 20.5625 C-48.93572554 26.49301205 -49.09002214 32.72349193 -47.4375 39.06640625 C-44.72913851 45.93611286 -40.2817133 49.38622531 -34.33984375 53.4375 C-27.89180095 55.66951482 -21.50714349 55.47018253 -15.21484375 52.8125 C-12.56240872 51.49568828 -10.74132168 50.2637668 -8.46484375 48.3125 C-5.18604241 45.89654112 -3.0689947 46.05606261 0.91015625 46.5625 C3.34765625 47.5625 3.34765625 47.5625 4.91015625 49.5625 C5.59882368 52.94844818 5.84403941 54.36793628 4.91015625 57.5625 C0.87933667 63.30745678 -4.60212325 67.07101798 -11.08984375 69.5625 C-12.00121094 69.91828125 -12.91257812 70.2740625 -13.8515625 70.640625 C-23.6565032 73.43189883 -35.14949934 72.46169802 -44.08984375 67.5625 C-54.24253806 61.06357768 -61.21729854 52.32201905 -64.08984375 40.5625 C-64.49443845 37.38137827 -64.5682475 34.26662743 -64.52734375 31.0625 C-64.51977051 30.22734863 -64.51219727 29.39219727 -64.50439453 28.53173828 C-64.34016997 22.41227561 -63.49761141 17.74315613 -60.08984375 12.5625 C-59.66574219 11.8096875 -59.24164063 11.056875 -58.8046875 10.28125 C-53.51787091 1.44534483 -45.09601668 -4.7806631 -35.3359375 -8.01953125 C-21.84946974 -10.52918699 -11.2299069 -7.50019191 0 0 Z " fill="#FBFCFE" transform="translate(539.08984375,804.4375)"/>
<path d="M0 0 C7.67332225 1.87918096 12.40586395 12.75973866 16.3125 19.0625 C17.54458851 21.03918745 18.77885766 23.01451786 20.015625 24.98828125 C20.55348633 25.85493408 21.09134766 26.72158691 21.64550781 27.61450195 C23.0211026 29.84076267 23.0211026 29.84076267 25.0625 31.75 C25.45518066 31.12544922 25.84786133 30.50089844 26.25244141 29.85742188 C28.06060192 26.98604385 29.87400982 24.11801465 31.6875 21.25 C32.30496094 20.26773438 32.92242187 19.28546875 33.55859375 18.2734375 C42.22869318 4.58380682 42.22869318 4.58380682 46.0625 0.75 C49.73814747 0.33231279 51.65991774 0.53120529 54.9375 2.3125 C57.0625 4.75 57.0625 4.75 57.453125 7.98828125 C56.9970288 12.38048769 55.47095301 14.9145324 52.9375 18.375 C52.5031665 19.0134082 52.06883301 19.65181641 51.62133789 20.30957031 C48.99711906 24.14864622 46.22370495 27.81656477 43.31640625 31.4453125 C33.03410635 44.79736631 31.21835929 55.41805024 32.38623047 72.15063477 C32.0625 74.75 32.0625 74.75 30.27392578 77.06225586 C28.0625 78.75 28.0625 78.75 24.5625 79.3125 C21.0625 78.75 21.0625 78.75 18.80078125 76.91015625 C16.90806687 73.46924404 16.92435631 72.56500235 17.26171875 68.8046875 C18.92600062 49.95886886 11.96442435 39.28951941 1.2800293 24.49365234 C0.75640305 23.7659816 0.23277679 23.03831085 -0.30671692 22.28858948 C-1.30301203 20.91908057 -2.31442837 19.56039593 -3.3433075 18.2151947 C-6.37109351 14.12726167 -7.85136472 11.0086384 -7.9375 5.75 C-5.56458341 2.37039152 -4.0091345 1.02360881 0 0 Z " fill="#FAFCFE" transform="translate(323.9375,796.25)"/>
<path d="M0 0 C3.82574632 0.62461164 5.32968677 1.77702427 8.0625 4.5 C8.66377258 7.22088623 8.66377258 7.22088623 8.63012695 10.37011719 C8.6297493 11.55103943 8.62937164 12.73196167 8.62898254 13.94866943 C8.60317612 15.21857727 8.57736969 16.48848511 8.55078125 17.796875 C8.54016914 19.75273529 8.54016914 19.75273529 8.52934265 21.74810791 C8.51029075 25.20750198 8.46120871 28.66583919 8.40582275 32.12481689 C8.35458934 35.65728458 8.33182008 39.18992378 8.30664062 42.72265625 C8.2530859 49.64887048 8.16779679 56.57438445 8.0625 63.5 C8.79364014 63.47381592 9.52478027 63.44763184 10.27807617 63.4206543 C13.60183082 63.31649856 16.92524194 63.25161379 20.25 63.1875 C21.40048828 63.14560547 22.55097656 63.10371094 23.73632812 63.06054688 C33.27118086 62.9223606 33.27118086 62.9223606 36.359375 65.79296875 C38.0625 68.5 38.0625 68.5 38.125 72.125 C36.92426236 75.93910781 36.50119864 76.64619757 33.0625 78.5 C30.27744579 78.8045233 27.72166926 78.94442991 24.9375 78.93359375 C24.15358887 78.9388356 23.36967773 78.94407745 22.56201172 78.94947815 C20.90788963 78.9558894 19.2537219 78.95457293 17.59960938 78.94604492 C15.07078879 78.93752792 12.5442229 78.96631641 10.015625 78.99804688 C8.40625068 78.99965889 6.79687236 78.99908134 5.1875 78.99609375 C4.4332373 79.00732773 3.67897461 79.01856171 2.90185547 79.03013611 C-0.35540549 78.98694921 -2.4691115 78.84199759 -5.1361084 76.89466858 C-7.54566569 73.69153877 -7.44469813 71.67134997 -7.45507812 67.68359375 C-7.4620874 67.00668488 -7.46909668 66.329776 -7.47631836 65.63235474 C-7.49388824 63.40031613 -7.48228073 61.16955094 -7.46875 58.9375 C-7.47144524 57.38337969 -7.47532793 55.82926103 -7.48034668 54.27514648 C-7.4862403 51.02018151 -7.47768366 47.76565602 -7.45898438 44.51074219 C-7.43619428 40.34076456 -7.44931817 36.17181669 -7.47327423 32.00187683 C-7.48773624 28.79333757 -7.48312451 25.58504201 -7.47276306 22.37649536 C-7.47009686 20.83912026 -7.47336184 19.30172295 -7.48268127 17.76437378 C-7.49285429 15.61445615 -7.47733888 13.46620025 -7.45507812 11.31640625 C-7.45189575 10.09381104 -7.44871338 8.87121582 -7.44543457 7.61157227 C-6.67547202 2.89483459 -4.70569318 0.80096905 0 0 Z " fill="#FEFEFE" transform="translate(561.9375,796.5)"/>
<path d="M0 0 C3.85490728 0.62937262 5.33533633 1.71972656 8.0625 4.5 C8.69741821 7.61157227 8.69741821 7.61157227 8.70947266 11.31640625 C8.71823425 11.99331512 8.72699585 12.670224 8.73602295 13.36764526 C8.75798763 15.59992018 8.74347775 17.83020583 8.7265625 20.0625 C8.72993156 21.6166217 8.73478493 23.17074083 8.74105835 24.72485352 C8.74842559 27.97991047 8.73773003 31.23428077 8.71435547 34.48925781 C8.68586648 38.65943554 8.70227143 42.82800447 8.73221779 46.99812317 C8.75029555 50.20670673 8.74453083 53.41490954 8.73157883 56.62350464 C8.72824607 58.16088044 8.73232741 59.69829094 8.74397659 61.23562622 C8.75669485 63.38587836 8.73730203 65.5335348 8.70947266 67.68359375 C8.70549469 68.90618896 8.70151672 70.12878418 8.69741821 71.38842773 C8.0625 74.5 8.0625 74.5 5.71347046 76.89477539 C2.47066201 78.85837174 0.79096942 79.13463309 -2.9375 78.5 C-5.91310918 76.27964814 -6.84085472 75.09204231 -7.44543457 71.38842773 C-7.44861694 70.16583252 -7.45179932 68.9432373 -7.45507812 67.68359375 C-7.4620874 67.00668488 -7.46909668 66.329776 -7.47631836 65.63235474 C-7.49388824 63.40031613 -7.48228073 61.16955094 -7.46875 58.9375 C-7.47144524 57.38337969 -7.47532793 55.82926103 -7.48034668 54.27514648 C-7.4862403 51.02018151 -7.47768366 47.76565602 -7.45898438 44.51074219 C-7.43619428 40.34076456 -7.44931817 36.17181669 -7.47327423 32.00187683 C-7.48773624 28.79333757 -7.48312451 25.58504201 -7.47276306 22.37649536 C-7.47009686 20.83912026 -7.47336184 19.30172295 -7.48268127 17.76437378 C-7.49285429 15.61445615 -7.47733888 13.46620025 -7.45507812 11.31640625 C-7.45189575 10.09381104 -7.44871338 8.87121582 -7.44543457 7.61157227 C-6.67547202 2.89483459 -4.70569318 0.80096905 0 0 Z " fill="#FEFEFE" transform="translate(237.9375,796.5)"/>
<path d="M0 0 C4.76925371 2.13548674 7.66548724 4.4114088 9.84375 9.3125 C10.63030231 14.34315751 10.44740873 18.10518254 8.15625 22.6875 C5.07450882 26.18569269 1.74300149 29.83731148 -3.0390625 30.62109375 C-8.88868306 30.95739598 -11.97862038 29.6546037 -16.52734375 26.015625 C-20.7075655 21.64493751 -20.69478445 17.12997614 -20.609375 11.30078125 C-19.91606485 6.72852031 -17.77296206 4.08310052 -14.15625 1.3125 C-9.58060836 -1.3747816 -5.00555073 -1.5959727 0 0 Z " fill="#FBBA06" transform="translate(141.15625,106.6875)"/>
<path d="M0 0 C0.66 0 1.32 0 2 0 C4.31 5.61 6.62 11.22 9 17 C4.05 17 -0.9 17 -6 17 C-5.15813297 12.79066487 -4.10885537 9.58732921 -2.4375 5.6875 C-1.75494141 4.08455078 -1.75494141 4.08455078 -1.05859375 2.44921875 C-0.53458984 1.23685547 -0.53458984 1.23685547 0 0 Z " fill="#1D99FC" transform="translate(636,822)"/>
<path d="M0 0 C0.66 0 1.32 0 2 0 C4.31 5.61 6.62 11.22 9 17 C4.05 17 -0.9 17 -6 17 C-5.15813297 12.79066487 -4.10885537 9.58732921 -2.4375 5.6875 C-1.75494141 4.08455078 -1.75494141 4.08455078 -1.05859375 2.44921875 C-0.53458984 1.23685547 -0.53458984 1.23685547 0 0 Z " fill="#1D99FC" transform="translate(407,822)"/>
</svg>
